<svg version="1.1" id="logo_CCI" xmlns="http://www.w3.org/2000/svg" xmlns:xlink="http://www.w3.org/1999/xlink" x="0px" y="0px"
	 viewBox="0 0 500 126" style="enable-background:new 0 0 500 126;" xml:space="preserve">
<style type="text/css">
	.blue-cci{fill:#3B3EEF;}
	.reserve{fill:#FFFFFF;}
</style>
<g>
	<g id="logo_reserve">
		<g>
			<path id="pastille" class="blue-cci" d="M451.9,96.59H48.1C21.64,96.59,0,74.95,0,48.49v0c0-26.45,21.64-48.1,48.1-48.1l403.81,0
				c26.45,0,48.1,21.64,48.1,48.1v0C500,74.95,478.36,96.59,451.9,96.59z"/>
			<g id="monogramme">
				<g>
					<path class="reserve" d="M37.53,48.49c0,15.95,12.97,28.92,28.92,28.92c7.59,0,13.58-2.86,17.78-6.14l-6.1-6.81
						c-3.35,2.42-7.27,3.78-11.68,3.78c-10.89,0-19.75-8.86-19.75-19.75c0-10.88,8.86-19.75,19.75-19.75c2.82,0,5.49,0.6,7.92,1.67
						L78,21.99c-3.54-1.55-7.45-2.42-11.55-2.42C50.5,19.57,37.53,32.55,37.53,48.49z"/>
					<path class="reserve" d="M51.03,48.49c0,8.5,6.91,15.41,15.41,15.41c3.26,0,6.55-1.16,8.66-2.75c0,0-5.73-6.39-6.23-6.93
						c-0.51,0.25-1.55,0.51-2.43,0.51c-3.44,0-6.24-2.8-6.24-6.24c0-3.44,2.82-6.33,6.26-6.33c0.89,0,1.77,0.21,2.54,0.55l3.62-8.3
						c-1.84-0.78-3.88-1.32-6.18-1.32C57.95,33.08,51.03,39.99,51.03,48.49z"/>
					<g>
						<path class="reserve" d="M77.94,42.5c0.79,1.57,1.48,3.71,1.48,5.99c0,2.89-1.22,6.02-2.84,8.1l6.19,6.82
							c3.45-3.69,5.82-9.04,5.82-14.92c0-3.48-0.87-6.98-2.33-9.87L77.94,42.5z"/>
					</g>
				</g>
				<g>
					<path class="reserve" d="M75.37,39.08l15.7-7.36c-2.32-3.41-5.48-6.52-8.72-8.48l-7.03,15.79L75.37,39.08z"/>
				</g>
			</g>
			<g id="titre">
				<path class="reserve" d="M126.45,24.39L124,27.3c-1.13-0.98-2.33-1.53-3.8-1.53c-2.69,0-4.59,2.17-4.59,7.38
					c0,5.11,1.87,7.29,4.68,7.29c1.68,0,2.91-0.83,4.13-1.78l2.27,2.94c-1.38,1.41-3.7,2.72-6.64,2.72c-5.82,0-9.7-3.92-9.7-11.17
					c0-7.1,4.1-11.08,9.55-11.08C122.78,22.06,124.71,22.92,126.45,24.39z"/>
				<path class="reserve" d="M133.64,34.7v9.09h-5.02V22.58h5.02v8.2h6.37v-8.2h5.02V43.8h-5.02V34.7H133.64z"/>
				<path class="reserve" d="M152.58,39.24l-1.07,4.56h-5.2l6.4-21.21h6.09l6.4,21.21h-5.33l-1.1-4.56H152.58z M155.68,26.22l-2.23,9.37
					h4.47L155.68,26.22z"/>
				<path class="reserve" d="M182.58,43.8l-0.37-8.3c-0.15-2.97-0.21-6.03-0.06-8.66l-3.28,14.73h-4.74l-3.49-14.73
					c0.21,3.12,0.21,5.76,0.09,8.73l-0.37,8.23h-4.9l1.59-21.21h6.34l3.18,14.39l2.97-14.39h6.37l1.59,21.21H182.58z"/>
				<path class="reserve" d="M206.48,37.61c0,4.84-3.92,6.18-9.25,6.18h-6.83V22.58h6c5.69,0,9.18,1.44,9.18,5.42
					c0,2.69-1.93,4.1-3.89,4.56C204.06,33.02,206.48,34.18,206.48,37.61z M195.43,31.06h1.87c2.08,0,3.18-0.8,3.18-2.57
					c0-1.77-1.16-2.36-3.58-2.36h-1.47V31.06z M201.31,37.34c0-2.14-1.5-2.94-3.67-2.94h-2.2v5.76h1.84
					C199.62,40.15,201.31,39.66,201.31,37.34z"/>
				<path class="reserve" d="M214.01,35.68v8.11h-5.02V22.58h6.95c5.75,0,8.72,2.05,8.72,6.46c0,2.79-1.32,4.47-4.07,5.73l5.39,9.03
					h-5.66l-4.35-8.11H214.01z M216.12,32.22c2.2,0,3.37-0.95,3.37-3.18c0-2.05-1.19-2.94-3.67-2.94h-1.81v6.12H216.12z"/>
				<path class="reserve" d="M232.58,26.16v5.08h6.52v3.52h-6.52v5.42h7.99v3.61h-13.01V22.58h13.01l-0.52,3.58H232.58z"/>
				<path class="reserve" d="M267.23,33.08c0,8.54-5.14,10.71-10.56,10.71h-6.37V22.58h5.91C261.87,22.58,267.23,24.33,267.23,33.08z
					 M255.32,40.15h1.65c3.03,0,5.05-1.44,5.05-7.07c0-5.69-2.17-6.86-5.11-6.86h-1.59V40.15z"/>
				<path class="reserve" d="M274.94,26.16v5.08h6.52v3.52h-6.52v5.42h7.99v3.61h-13.01V22.58h13.01l-0.52,3.58H274.94z"/>
				<path class="reserve" d="M307.78,24.39l-2.45,2.91c-1.13-0.98-2.33-1.53-3.8-1.53c-2.69,0-4.59,2.17-4.59,7.38
					c0,5.11,1.87,7.29,4.68,7.29c1.68,0,2.91-0.83,4.13-1.78l2.27,2.94c-1.38,1.41-3.7,2.72-6.64,2.72c-5.82,0-9.7-3.92-9.7-11.17
					c0-7.1,4.1-11.08,9.55-11.08C304.11,22.06,306.04,22.92,307.78,24.39z"/>
				<path class="reserve" d="M327.49,33.17c0,6.95-3.58,11.14-9.58,11.14c-5.97,0-9.55-4.07-9.55-11.14c0-6.92,3.58-11.11,9.55-11.11
					C323.91,22.06,327.49,26.1,327.49,33.17z M313.62,33.17c0,5.39,1.53,7.47,4.29,7.47c2.88,0,4.32-2.08,4.32-7.47
					c0-5.36-1.47-7.44-4.32-7.44C315.09,25.74,313.62,27.82,313.62,33.17z"/>
				<path class="reserve" d="M346.01,43.8l-0.37-8.3c-0.15-2.97-0.21-6.03-0.06-8.66l-3.28,14.73h-4.74l-3.49-14.73
					c0.21,3.12,0.21,5.76,0.09,8.73l-0.37,8.23h-4.9l1.59-21.21h6.34l3.18,14.39l2.97-14.39h6.37l1.59,21.21H346.01z"/>
				<path class="reserve" d="M369.97,43.8l-0.37-8.3c-0.15-2.97-0.21-6.03-0.06-8.66l-3.28,14.73h-4.74l-3.49-14.73
					c0.21,3.12,0.21,5.76,0.09,8.73l-0.37,8.23h-4.9l1.59-21.21h6.34l3.18,14.39l2.97-14.39h6.37l1.59,21.21H369.97z"/>
				<path class="reserve" d="M382.82,26.16v5.08h6.52v3.52h-6.52v5.42h7.99v3.61H377.8V22.58h13.01l-0.52,3.58H382.82z"/>
				<path class="reserve" d="M398.61,35.68v8.11h-5.02V22.58h6.95c5.76,0,8.73,2.05,8.73,6.46c0,2.79-1.32,4.47-4.07,5.73l5.39,9.03
					h-5.66l-4.35-8.11H398.61z M400.72,32.22c2.2,0,3.37-0.95,3.37-3.18c0-2.05-1.19-2.94-3.67-2.94h-1.81v6.12H400.72z"/>
				<path class="reserve" d="M426.99,24.39l-2.45,2.91c-1.13-0.98-2.33-1.53-3.8-1.53c-2.69,0-4.59,2.17-4.59,7.38
					c0,5.11,1.87,7.29,4.68,7.29c1.68,0,2.91-0.83,4.13-1.78l2.27,2.94c-1.38,1.41-3.7,2.72-6.64,2.72c-5.82,0-9.7-3.92-9.7-11.17
					c0-7.1,4.1-11.08,9.55-11.08C423.31,22.06,425.24,22.92,426.99,24.39z"/>
				<path class="reserve" d="M434.17,26.16v5.08h6.52v3.52h-6.52v5.42h7.99v3.61h-13.01V22.58h13.01l-0.52,3.58H434.17z"/>
				<path class="reserve" d="M116.35,56.77v5.08h6.52v3.52h-6.52v5.42h7.99v3.61h-13.01V53.19h13.01l-0.52,3.58H116.35z"/>
				<path class="reserve" d="M135.91,57.04V74.4h-5.02V57.04h-5.48v-3.86h16.23l-0.49,3.86H135.91z"/>
				<path class="reserve" d="M167.22,63.69c0,8.54-5.14,10.71-10.56,10.71h-6.37V53.19h5.91C161.86,53.19,167.22,54.93,167.22,63.69z
					 M155.31,70.76h1.65c3.03,0,5.05-1.44,5.05-7.07c0-5.69-2.17-6.86-5.11-6.86h-1.59V70.76z"/>
				<path class="reserve" d="M174.19,53.43c0,0.8-0.24,1.53-0.89,2.85l-1.96,4.04h-2.48l1.29-4.81c-0.7-0.49-1.13-1.13-1.13-2.11
					c0-1.38,1.13-2.45,2.6-2.45S174.19,52.02,174.19,53.43z"/>
				<path class="reserve" d="M177.04,74.4V53.19h5.02V74.4H177.04z"/>
				<path class="reserve" d="M195.68,74.4l-6.12-16.44c0.24,1.93,0.64,4.75,0.64,8.66v7.78h-4.47V53.19h6.24l6.28,16.47
					c-0.28-1.71-0.67-4.5-0.67-7.9v-8.57h4.5V74.4H195.68z"/>
				<path class="reserve" d="M222.64,63.69c0,8.54-5.14,10.71-10.56,10.71h-6.37V53.19h5.91C217.28,53.19,222.64,54.93,222.64,63.69z
					 M210.73,70.76h1.65c3.03,0,5.05-1.44,5.05-7.07c0-5.69-2.17-6.86-5.11-6.86h-1.59V70.76z"/>
				<path class="reserve" d="M233.29,74.92c-5.54,0-8.27-3.09-8.27-7.56V53.19h5.02v13.96c0,2.72,0.98,4.04,3.24,4.04
					c2.3,0,3.28-1.32,3.28-4.04V53.19h5.02v14.17C241.58,71.65,238.83,74.92,233.29,74.92z"/>
				<path class="reserve" d="M259.12,55.39l-2.36,2.72c-1.44-1.19-2.91-1.77-4.62-1.77c-1.75,0-2.85,0.73-2.85,2.08
					c0,1.35,0.8,1.9,4.1,2.94c4.01,1.29,6.31,2.94,6.31,6.86c0,3.95-3.12,6.7-8.42,6.7c-3.67,0-6.31-1.35-8.05-3.03l2.57-2.82
					c1.5,1.35,3.21,2.11,5.33,2.11c2.08,0,3.37-0.98,3.37-2.6c0-1.56-0.8-2.27-3.89-3.21c-4.75-1.47-6.49-3.43-6.49-6.58
					c0-3.74,3.25-6.12,7.65-6.12C255.02,52.67,257.25,53.61,259.12,55.39z"/>
				<path class="reserve" d="M270.63,57.04V74.4h-5.02V57.04h-5.48v-3.86h16.23l-0.49,3.86H270.63z"/>
				<path class="reserve" d="M283.08,66.29v8.11h-5.02V53.19h6.95c5.75,0,8.72,2.05,8.72,6.46c0,2.79-1.32,4.47-4.07,5.73l5.39,9.03
					h-5.66l-4.35-8.11H283.08z M285.19,62.83c2.2,0,3.37-0.95,3.37-3.18c0-2.05-1.19-2.94-3.67-2.94h-1.81v6.12H285.19z"/>
				<path class="reserve" d="M296.64,74.4V53.19h5.02V74.4H296.64z"/>
				<path class="reserve" d="M310.35,56.77v5.08h6.52v3.52h-6.52v5.42h7.99v3.61h-13.01V53.19h13.01l-0.52,3.58H310.35z"/>
			</g>
		</g>
		<g id="baseline">
			<path class="blue-cci" d="M86.25,125.28v-10.71l-3.12,1.83l-1.31-1.93l4.72-2.71h2.63v13.52H86.25z"/>
			<path class="blue-cci" d="M97.21,116.01h-4.07c0.12,1.19,0.71,1.54,1.55,1.54c0.55,0,1.02-0.16,1.59-0.54l0.73,0.94
				c-0.64,0.49-1.45,0.84-2.47,0.84c-2.09,0-3.18-1.31-3.18-3.25c0-1.87,1.06-3.32,2.96-3.32c1.84,0,2.94,1.17,2.94,3.15
				C97.24,115.58,97.22,115.83,97.21,116.01z M95.51,114.9c0-0.94-0.33-1.54-1.17-1.54c-0.69,0-1.12,0.44-1.2,1.61h2.37V114.9z"/>
			<path class="blue-cci" d="M102.63,112.32l-0.3,1.6c-0.2-0.05-0.36-0.08-0.58-0.08c-0.8,0-1.17,0.56-1.4,1.56v3.2h-1.74v-6.2h1.51
				l0.16,1.2c0.31-0.87,0.93-1.38,1.7-1.38C102.21,112.23,102.41,112.27,102.63,112.32z"/>
			<path class="blue-cci" d="M112.11,122.18l-0.82,3.11h-3.22l4.49-13.88h3.77l4.47,13.88h-3.29l-0.82-3.11H112.11z M114.38,113.59
				l-1.69,6.4h3.39L114.38,113.59z"/>
			<path class="blue-cci" d="M131.73,112.59l-1.56,1.72c-0.8-0.66-1.64-1-2.65-1c-1.94,0-3.37,1.4-3.37,5.02c0,3.49,1.41,4.95,3.41,4.95
				c1.22,0,2.06-0.54,2.91-1.16l1.43,1.75c-0.93,0.9-2.46,1.75-4.49,1.75c-3.88,0-6.53-2.55-6.53-7.28c0-4.67,2.8-7.24,6.45-7.24
				C129.27,111.08,130.53,111.62,131.73,112.59z"/>
			<path class="blue-cci" d="M143.04,112.59l-1.56,1.72c-0.8-0.66-1.64-1-2.65-1c-1.94,0-3.37,1.4-3.37,5.02c0,3.49,1.41,4.95,3.41,4.95
				c1.22,0,2.06-0.54,2.91-1.16l1.43,1.75c-0.93,0.9-2.46,1.75-4.49,1.75c-3.88,0-6.53-2.55-6.53-7.28c0-4.67,2.8-7.24,6.45-7.24
				C140.58,111.08,141.84,111.62,143.04,112.59z"/>
			<path class="blue-cci" d="M147.75,113.55v3.61h4.59v2.13h-4.59v3.83h5.65v2.17h-8.74V111.4h8.7l-0.34,2.15H147.75z M146.93,110.2
				l-0.76-1.46l4.53-2.41l1.16,2.17L146.93,110.2z"/>
			<path class="blue-cci" d="M164.26,122.92l-0.34,2.37h-8.53V111.4h3.1v11.51H164.26z"/>
			<path class="blue-cci" d="M168.85,113.55v3.61h4.59v2.13h-4.59v3.83h5.65v2.17h-8.74V111.4h8.7l-0.34,2.15H168.85z M168.03,110.2
				l-0.76-1.46l4.53-2.41l1.16,2.17L168.03,110.2z"/>
			<path class="blue-cci" d="M179.58,119.85v5.44h-3.1V111.4h4.55c3.9,0,5.88,1.34,5.88,4.15c0,1.85-0.95,2.95-2.89,3.75l3.77,5.98h-3.52
				l-3.12-5.44H179.58z M181.2,117.76c1.62,0,2.51-0.64,2.51-2.21c0-1.42-0.86-2.05-2.74-2.05h-1.39v4.25H181.2z"/>
			<path class="blue-cci" d="M192.38,122.18l-0.82,3.11h-3.22l4.49-13.88h3.77l4.47,13.88h-3.29l-0.82-3.11H192.38z M194.66,113.59
				l-1.69,6.4h3.39L194.66,113.59z"/>
			<path class="blue-cci" d="M206.78,113.71v11.58h-3.1v-11.58h-3.88v-2.31h11l-0.34,2.31H206.78z"/>
			<path class="blue-cci" d="M215.26,113.55v3.61h4.59v2.13h-4.59v3.83h5.65v2.17h-8.74V111.4h8.7l-0.34,2.15H215.26z"/>
			<path class="blue-cci" d="M228.1,125.61c-3.69,0-5.54-2.01-5.54-4.89v-9.31h3.1v9.17c0,1.87,0.76,2.79,2.44,2.79
				c1.71,0,2.46-0.92,2.46-2.79v-9.17h3.1v9.31C233.66,123.5,231.79,125.61,228.1,125.61z"/>
			<path class="blue-cci" d="M239.36,119.85v5.44h-3.1V111.4h4.55c3.9,0,5.88,1.34,5.88,4.15c0,1.85-0.95,2.95-2.89,3.75l3.77,5.98h-3.52
				l-3.12-5.44H239.36z M240.99,117.76c1.62,0,2.51-0.64,2.51-2.21c0-1.42-0.86-2.05-2.74-2.05h-1.39v4.25H240.99z"/>
			<path class="blue-cci" d="M265.25,118.28c0,5.6-3.58,7-7.16,7h-4.17V111.4h3.81C261.59,111.4,265.25,112.55,265.25,118.28z
				 M257.02,123.12h1.26c2.13,0,3.75-0.94,3.75-4.83c0-3.97-1.71-4.71-3.81-4.71h-1.2V123.12z"/>
			<path class="blue-cci" d="M270.38,113.55v3.61h4.59v2.13h-4.59v3.83h5.65v2.17h-8.74V111.4h8.7l-0.34,2.15H270.38z"/>
			<path class="blue-cci" d="M287.77,112.83l-1.5,1.64c-1.01-0.82-2.02-1.18-3.2-1.18c-1.26,0-2.13,0.52-2.13,1.5
				c0,0.96,0.55,1.36,2.93,2.07c2.63,0.8,4.32,1.85,4.32,4.41c0,2.55-2.11,4.33-5.65,4.33c-2.42,0-4.19-0.82-5.39-1.95l1.62-1.68
				c1.01,0.88,2.19,1.4,3.69,1.4c1.49,0,2.51-0.68,2.51-1.91c0-1.1-0.57-1.58-2.78-2.23c-3.16-0.94-4.42-2.15-4.42-4.25
				c0-2.37,2.15-3.91,5.1-3.91C285.03,111.08,286.5,111.7,287.77,112.83z"/>
			<path class="blue-cci" d="M298.13,113.55v3.61h4.59v2.13h-4.59v3.83h5.65v2.17h-8.74V111.4h8.7l-0.34,2.15H298.13z"/>
			<path class="blue-cci" d="M312.78,125.28l-4.63-11.01c0.17,1.24,0.42,3.05,0.42,5.62v5.4h-2.8V111.4h3.9l4.72,11.03
				c-0.15-0.94-0.42-2.87-0.42-4.93v-6.1h2.8v13.88H312.78z"/>
			<path class="blue-cci" d="M325.19,113.71v11.58h-3.1v-11.58h-3.88v-2.31h11l-0.34,2.31H325.19z"/>
			<path class="blue-cci" d="M333.67,119.85v5.44h-3.1V111.4h4.55c3.9,0,5.88,1.34,5.88,4.15c0,1.85-0.95,2.95-2.89,3.75l3.77,5.98h-3.52
				l-3.12-5.44H333.67z M335.29,117.76c1.62,0,2.51-0.64,2.51-2.21c0-1.42-0.86-2.05-2.74-2.05h-1.39v4.25H335.29z"/>
			<path class="blue-cci" d="M346.37,113.55v3.61h4.59v2.13h-4.59v3.83h5.65v2.17h-8.74V111.4h8.7l-0.34,2.15H346.37z"/>
			<path class="blue-cci" d="M364.5,115.88c0,3.21-2.4,4.67-5.73,4.67h-1.66v4.73h-3.1V111.4h4.51
				C362.22,111.4,364.5,112.85,364.5,115.88z M361.3,115.88c0-1.62-1.01-2.35-2.82-2.35h-1.37v4.85h1.41
				C360.22,118.38,361.3,117.76,361.3,115.88z"/>
			<path class="blue-cci" d="M369.2,119.85v5.44h-3.1V111.4h4.55c3.9,0,5.88,1.34,5.88,4.15c0,1.85-0.95,2.95-2.89,3.75l3.77,5.98h-3.52
				l-3.12-5.44H369.2z M370.82,117.76c1.62,0,2.51-0.64,2.51-2.21c0-1.42-0.86-2.05-2.74-2.05h-1.39v4.25H370.82z"/>
			<path class="blue-cci" d="M378.81,125.28V111.4h3.12v13.88H378.81z"/>
			<path class="blue-cci" d="M394,112.83l-1.5,1.64c-1.01-0.82-2.02-1.18-3.2-1.18c-1.26,0-2.13,0.52-2.13,1.5
				c0,0.96,0.55,1.36,2.93,2.07c2.63,0.8,4.32,1.85,4.32,4.41c0,2.55-2.11,4.33-5.65,4.33c-2.42,0-4.19-0.82-5.39-1.95l1.62-1.68
				c1.01,0.88,2.19,1.4,3.69,1.4s2.51-0.68,2.51-1.91c0-1.1-0.57-1.58-2.78-2.23c-3.16-0.94-4.42-2.15-4.42-4.25
				c0-2.37,2.15-3.91,5.1-3.91C391.26,111.08,392.73,111.7,394,112.83z"/>
			<path class="blue-cci" d="M399.33,113.55v3.61h4.59v2.13h-4.59v3.83h5.65v2.17h-8.74V111.4h8.7l-0.34,2.15H399.33z"/>
			<path class="blue-cci" d="M416.73,112.83l-1.5,1.64c-1.01-0.82-2.02-1.18-3.2-1.18c-1.26,0-2.13,0.52-2.13,1.5
				c0,0.96,0.55,1.36,2.93,2.07c2.63,0.8,4.32,1.85,4.32,4.41c0,2.55-2.11,4.33-5.65,4.33c-2.42,0-4.19-0.82-5.39-1.95l1.62-1.68
				c1.01,0.88,2.19,1.4,3.69,1.4c1.5,0,2.51-0.68,2.51-1.91c0-1.1-0.57-1.58-2.78-2.23c-3.16-0.94-4.42-2.15-4.42-4.25
				c0-2.37,2.15-3.91,5.1-3.91C413.99,111.08,415.46,111.7,416.73,112.83z"/>
		</g>
	</g>
</g>
</svg>